<?xml version="1.0" encoding="utf-8"?>
<!-- Generator: Adobe Illustrator 19.2.0, SVG Export Plug-In . SVG Version: 6.00 Build 0)  -->
<svg version="1.1" id="Livello_1" xmlns="http://www.w3.org/2000/svg" xmlns:xlink="http://www.w3.org/1999/xlink" x="0px" y="0px"
	 viewBox="0 0 36.6 9.7" style="enable-background:new 0 0 36.6 9.7;" xml:space="preserve">
<style type="text/css">
	.st0{fill:#FFFFFF;}
</style>
<g>
	<path class="st0" d="M0,9.5V0h3.3L5,6.9L6.6,0h3.3v9.5H8V2.2H7.8L5.9,9.1H4L2.1,2.2H1.9v7.4H0z"/>
	<path class="st0" d="M12,9.5V0h6.2v1.7h-4.2v2.2h3.4v1.7h-3.4v2.3h4.2v1.7H12z"/>
	<path class="st0" d="M19.8,9.5V0H23l2.3,7.8h0.1V0h1.9v9.5h-3.2l-2.4-7.8h-0.1v7.8H19.8z"/>
	<path class="st0" d="M31.3,6.3C31.3,7.5,31.9,8,33,8c1.1,0,1.7-0.6,1.7-1.7V0h1.9v6.3c0,1.2-0.3,2-0.9,2.6
		c-0.6,0.5-1.5,0.8-2.7,0.8c-1.2,0-2.1-0.3-2.7-0.8s-0.9-1.4-0.9-2.6V0h1.9V6.3z"/>
</g>
</svg>
