<?xml version="1.0" encoding="utf-8"?>
<!-- Generator: Adobe Illustrator 19.2.0, SVG Export Plug-In . SVG Version: 6.00 Build 0)  -->
<!DOCTYPE svg PUBLIC "-//W3C//DTD SVG 1.1//EN" "http://www.w3.org/Graphics/SVG/1.1/DTD/svg11.dtd">
<svg version="1.1" id="Livello_1" xmlns="http://www.w3.org/2000/svg" xmlns:xlink="http://www.w3.org/1999/xlink" x="0px" y="0px"
	 viewBox="0 0 60 60" style="enable-background:new 0 0 60 60;" xml:space="preserve">
<style type="text/css">
	.st0{fill:#348d45;}
	.st1{fill:#FFFFFF;}
</style>
<circle class="st0" cx="30" cy="29.9" r="19.8"/>
<path class="st1" d="M30,51.6c-12,0-21.8-9.8-21.8-21.8S18,8.1,30,8.1s21.8,9.8,21.8,21.8S42,51.6,30,51.6z M30,10.9
	c-10.4,0-18.9,8.5-18.9,18.9S19.6,48.8,30,48.8c10.4,0,18.9-8.5,18.9-18.9S40.4,10.9,30,10.9z"/>
<path class="st1" d="M39.7,35.7h-2.6c-0.1,0-0.2-0.1-0.3-0.2l-7.2-10.2l-7.2,10.2c-0.1,0.1-0.2,0.2-0.3,0.2h-2.6
	c-0.1,0-0.3-0.1-0.3-0.2c-0.1-0.1,0-0.3,0-0.4l9.1-12.5c0.1-0.1,0.2-0.1,0.3-0.1h2c0.1,0,0.2,0.1,0.3,0.1L40,35.2
	c0.1,0.1,0.1,0.2,0,0.4C39.9,35.7,39.8,35.7,39.7,35.7z"/>
</svg>
