<?xml version="1.0" encoding="utf-8"?>
<!-- Generator: Adobe Illustrator 19.2.1, SVG Export Plug-In . SVG Version: 6.00 Build 0)  -->
<!DOCTYPE svg PUBLIC "-//W3C//DTD SVG 1.1//EN" "http://www.w3.org/Graphics/SVG/1.1/DTD/svg11.dtd">
<svg version="1.1" id="Livello_1" xmlns="http://www.w3.org/2000/svg" xmlns:xlink="http://www.w3.org/1999/xlink" x="0px" y="0px"
	 viewBox="0 0 23.8 23.8" style="enable-background:new 0 0 23.8 23.8;" xml:space="preserve">
<style type="text/css">
	.st0{fill:#348d45;}
</style>
<title>X</title>
<path class="st0" d="M20.4,0.6l-8.5,8.5L3.4,0.6C2.6-0.1,1.3,0,0.6,0.9C0,1.6,0,2.7,0.6,3.4l8.5,8.5l-8.5,8.5c-0.8,0.8-0.8,2,0,2.8
	s2,0.8,2.8,0l0,0l8.5-8.5l8.5,8.5c0.8,0.8,2,0.8,2.8,0s0.8-2,0-2.8l0,0l-8.5-8.5l8.5-8.5c0.8-0.8,0.8-2.1,0-2.8
	C22.4-0.2,21.2-0.2,20.4,0.6L20.4,0.6z"/>
</svg>
